<?xml version="1.0" encoding="UTF-8"?>
<!-- Gothic Icon Set for DARKCITY -->
<svg xmlns="http://www.w3.org/2000/svg" style="display: none;">
  
  <!-- Gothic Cross -->
  <symbol id="icon-cross" viewBox="0 0 24 24">
    <path d="M12 2L10 4V10H4L2 12L4 14H10V22L12 24L14 22V14H20L22 12L20 10H14V4L12 2Z" 
          fill="currentColor" stroke="currentColor" stroke-width="0.5"/>
    <circle cx="12" cy="12" r="2" fill="currentColor"/>
  </symbol>
  
  <!-- Gargoyle -->
  <symbol id="icon-gargoyle" viewBox="0 0 24 24">
    <path d="M12 2C10 2 8 3 7 5L5 7C4 8 3 10 3 12C3 14 4 16 6 17L7 18V22H9V19L10 18C11 19 12.5 19.5 14 19C15.5 18.5 17 17 18 15L19 13C20 11 20 9 19 7L17 5C16 3 14 2 12 2Z" 
          fill="currentColor"/>
    <circle cx="9" cy="10" r="1.5" fill="#d4af37"/>
    <circle cx="15" cy="10" r="1.5" fill="#d4af37"/>
    <path d="M10 14L12 16L14 14" stroke="currentColor" fill="none" stroke-width="1.5"/>
  </symbol>
  
  <!-- Raven -->
  <symbol id="icon-raven" viewBox="0 0 24 24">
    <path d="M18 3L16 5L14 4L12 6L10 5L8 7L6 8L4 10L3 12C3 13 4 14 5 14L7 13L9 14L11 13L13 14L15 13L17 14C18 14 19 13 19 12L18 10L17 8L16 6L18 3Z" 
          fill="currentColor"/>
    <path d="M8 8L6 12L8 14L10 12L12 14L14 12L16 14L18 12L16 8L14 10L12 8L10 10L8 8Z" 
          fill="currentColor" opacity="0.7"/>
    <circle cx="8" cy="10" r="1" fill="#ffa500"/>
  </symbol>
  
  <!-- Skull -->
  <symbol id="icon-skull" viewBox="0 0 24 24">
    <ellipse cx="12" cy="10" rx="7" ry="8" fill="currentColor"/>
    <circle cx="9" cy="10" r="2" fill="#0a0a14"/>
    <circle cx="15" cy="10" r="2" fill="#0a0a14"/>
    <path d="M9 15L10 17L11 15H13L14 17L15 15" stroke="currentColor" fill="none" stroke-width="1.5"/>
    <rect x="10" y="18" width="1.5" height="4" fill="currentColor"/>
    <rect x="12.5" y="18" width="1.5" height="4" fill="currentColor"/>
  </symbol>
  
  <!-- Torch -->
  <symbol id="icon-torch" viewBox="0 0 24 24">
    <rect x="11" y="10" width="2" height="12" fill="currentColor"/>
    <path d="M12 2C10 4 9 6 10 8C11 6 12 5 13 4C14 6 13 8 12 10C14 10 15 9 15 7C16 9 15 11 13 12C15 11 17 10 17 8C17 6 15 4 12 2Z" 
          fill="#ffa500"/>
    <ellipse cx="12" cy="9" rx="2" ry="1" fill="#ffd700" opacity="0.6"/>
  </symbol>
  
  <!-- Gothic Window -->
  <symbol id="icon-window" viewBox="0 0 24 24">
    <path d="M6 22V6C6 4 7 2 12 2C17 2 18 4 18 6V22H6Z" 
          fill="currentColor" stroke="currentColor" stroke-width="1"/>
    <path d="M12 2L10 6L12 10L14 6L12 2Z" fill="#d4af37"/>
    <line x1="12" y1="2" x2="12" y2="22" stroke="#d4af37" stroke-width="0.5"/>
    <line x1="6" y1="12" x2="18" y2="12" stroke="#d4af37" stroke-width="0.5"/>
  </symbol>
  
  <!-- Wax Seal -->
  <symbol id="icon-seal" viewBox="0 0 24 24">
    <circle cx="12" cy="12" r="9" fill="#8b0000"/>
    <circle cx="12" cy="12" r="7" fill="#6b0000"/>
    <path d="M12 6L13 9L16 10L13 11L12 14L11 11L8 10L11 9Z" fill="#d4af37"/>
  </symbol>
  
  <!-- Iron Gate -->
  <symbol id="icon-gate" viewBox="0 0 24 24">
    <rect x="3" y="2" width="2" height="20" fill="currentColor"/>
    <rect x="7" y="2" width="2" height="20" fill="currentColor"/>
    <rect x="11" y="2" width="2" height="20" fill="currentColor"/>
    <rect x="15" y="2" width="2" height="20" fill="currentColor"/>
    <rect x="19" y="2" width="2" height="20" fill="currentColor"/>
    <rect x="2" y="8" width="20" height="1.5" fill="currentColor"/>
    <rect x="2" y="14" width="20" height="1.5" fill="currentColor"/>
    <circle cx="4" cy="4" r="1" fill="#d4af37"/>
    <circle cx="8" cy="4" r="1" fill="#d4af37"/>
    <circle cx="12" cy="4" r="1" fill="#d4af37"/>
    <circle cx="16" cy="4" r="1" fill="#d4af37"/>
    <circle cx="20" cy="4" r="1" fill="#d4af37"/>
  </symbol>
  
  <!-- Candelabra -->
  <symbol id="icon-candelabra" viewBox="0 0 24 24">
    <rect x="11.5" y="16" width="1" height="6" fill="currentColor"/>
    <path d="M6 8L6 12L7 12L7 16L8 16L8 8L6 8Z" fill="currentColor"/>
    <path d="M11 8L11 12L12 12L12 16L13 16L13 8L11 8Z" fill="currentColor"/>
    <path d="M16 8L16 12L17 12L17 16L18 16L18 8L16 8Z" fill="currentColor"/>
    <ellipse cx="7" cy="7" rx="1" ry="2" fill="#ffa500"/>
    <ellipse cx="12" cy="7" rx="1" ry="2" fill="#ffa500"/>
    <ellipse cx="17" cy="7" rx="1" ry="2" fill="#ffa500"/>
    <path d="M4 22L8 22C8 20 7 18 6 17C5 18 4 20 4 22Z" fill="currentColor"/>
    <path d="M10 22L14 22C14 20 13 18 12 17C11 18 10 20 10 22Z" fill="currentColor"/>
    <path d="M16 22L20 22C20 20 19 18 18 17C17 18 16 20 16 22Z" fill="currentColor"/>
  </symbol>
  
  <!-- Cobblestone -->
  <symbol id="icon-cobblestone" viewBox="0 0 24 24">
    <rect x="1" y="1" width="6" height="5" fill="currentColor" opacity="0.8"/>
    <rect x="8" y="1" width="7" height="5" fill="currentColor" opacity="0.9"/>
    <rect x="16" y="1" width="6" height="5" fill="currentColor" opacity="0.7"/>
    <rect x="1" y="7" width="5" height="6" fill="currentColor" opacity="0.9"/>
    <rect x="7" y="7" width="8" height="6" fill="currentColor" opacity="0.8"/>
    <rect x="16" y="7" width="6" height="6" fill="currentColor" opacity="0.85"/>
    <rect x="1" y="14" width="7" height="8" fill="currentColor" opacity="0.75"/>
    <rect x="9" y="14" width="6" height="8" fill="currentColor" opacity="0.9"/>
    <rect x="16" y="14" width="6" height="8" fill="currentColor" opacity="0.8"/>
  </symbol>

</svg>
